<svg width="29" height="29" viewBox="0 0 29 29" fill="none" xmlns="http://www.w3.org/2000/svg">
<path d="M27.9323 12.9093L27.9115 12.0266C27.897 10.5956 27.8371 9.42292 27.7239 8.33452C27.6704 7.76992 27.5906 7.26514 27.4819 6.77123L27.4973 6.85552C27.433 6.45767 27.2816 6.10333 27.0641 5.80064L27.0695 5.80789C26.9871 5.70639 26.8783 5.62936 26.7524 5.58858L26.7478 5.58767C26.4723 5.47348 26.1524 5.40733 25.818 5.40733C25.3368 5.40733 24.8882 5.54417 24.5076 5.7807L24.5185 5.77436C23.8859 6.26464 23.4618 6.9978 23.3847 7.83064L23.3838 7.84242L22.9226 12.3809C22.6579 12.2405 22.3435 12.158 22.01 12.158C21.2297 12.158 20.5554 12.6093 20.2328 13.2654L20.2274 13.2772L18.8181 15.7177L16.142 18.2725C16.0958 18.316 16.0559 18.3667 16.0242 18.422L16.0224 18.4247L15.2684 19.7297L14.8787 19.505C14.8642 19.4968 14.847 19.4968 14.8315 19.4895C14.7482 19.4488 14.6494 19.4243 14.5452 19.4243C14.441 19.4243 14.3431 19.4479 14.2552 19.4914L14.2588 19.4895C14.2434 19.4968 14.2262 19.4968 14.2108 19.505L13.8211 19.7297L13.068 18.4247C13.0345 18.3667 12.9946 18.316 12.9493 18.2725L10.2731 15.7177L8.86389 13.2772C8.58839 12.7652 8.12711 12.3836 7.57248 12.2187L7.55708 12.2151C7.41208 12.1752 7.24533 12.1525 7.07314 12.1525C6.74145 12.1525 6.4297 12.2377 6.15873 12.3873L6.1687 12.3827L5.70833 7.8542C5.63311 7.00505 5.20808 6.26827 4.57914 5.7807L4.5728 5.77617C4.20305 5.54598 3.75355 5.40914 3.27233 5.40914C2.93702 5.40914 2.61802 5.4753 2.3262 5.59583L2.34252 5.58948C2.21202 5.63117 2.10236 5.7082 2.0217 5.8088L2.0208 5.8097C1.8033 6.11511 1.64923 6.48033 1.5867 6.87545L1.58489 6.88995C1.49336 7.29323 1.41633 7.78714 1.37011 8.29011L1.36648 8.33814C1.25411 9.42292 1.1952 10.5956 1.17889 12.0284C1.17527 12.3256 1.1662 12.6229 1.15805 12.9201C1.14083 13.2047 1.13086 13.5382 1.13086 13.8735C1.13086 14.5088 1.1662 15.135 1.23598 15.7513L1.22873 15.676C1.55317 17.9245 2.66333 19.8675 4.2683 21.2549L4.28008 21.2649C5.22983 22.0171 6.0663 22.8381 6.80942 23.739L6.83208 23.767L6.29105 24.0797C6.08623 24.1993 5.9512 24.4186 5.9512 24.6688C5.9512 24.7938 5.98473 24.9116 6.04364 25.0122L6.04183 25.0086L7.49636 27.5289C7.58608 27.683 7.73108 27.7971 7.90417 27.8443L7.9087 27.8452C7.96036 27.8597 8.02017 27.8678 8.0818 27.8678C8.0827 27.8678 8.08361 27.8678 8.08542 27.8678C8.08633 27.8678 8.08633 27.8678 8.08723 27.8678C8.21139 27.8678 8.3283 27.8343 8.42889 27.7754L8.42527 27.7772L14.5452 24.2428L20.6687 27.7772C20.7666 27.8334 20.8835 27.8669 21.0085 27.8678C21.2587 27.8669 21.478 27.7319 21.5958 27.5316L21.5976 27.528L23.0521 25.0077C23.1083 24.9098 23.1419 24.7929 23.1419 24.6679C23.1419 24.6053 23.1337 24.5455 23.1183 24.4884L23.1192 24.493C23.0712 24.3153 22.957 24.1694 22.8056 24.0806L22.802 24.0788L22.2601 23.7661C23.0331 22.8309 23.8768 22.0044 24.7994 21.273L24.8338 21.2468C26.4379 19.8511 27.5408 17.9145 27.858 15.7241L27.8634 15.6751C27.925 15.1359 27.9604 14.5106 27.9604 13.878C27.9604 13.5373 27.9504 13.2002 27.9305 12.8649L27.9323 12.9111V12.9093ZM5.14192 20.2155C3.78889 19.0265 2.85727 17.387 2.57995 15.5338L2.57452 15.4912C2.51923 15.0045 2.48842 14.4408 2.48842 13.8699C2.48842 13.55 2.49839 13.2319 2.51742 12.9174L2.51561 12.9609C2.52558 12.6546 2.53464 12.3483 2.53736 12.042C2.55277 10.6518 2.60986 9.51898 2.7177 8.47499C2.76302 7.97292 2.8337 7.52161 2.93158 7.08027L2.91798 7.15277C2.94155 7.04764 2.97055 6.91895 3.00589 6.81473C3.09652 6.78664 3.19983 6.77033 3.30767 6.77033C3.49436 6.77033 3.67017 6.81927 3.82152 6.90536L3.81608 6.90264C4.11877 7.1718 4.31905 7.5497 4.35439 7.97473V7.98108L5.00145 14.343C5.01233 14.4435 5.04314 14.536 5.09117 14.6166L5.08936 14.613L8.00567 19.6635C8.12439 19.8729 8.34552 20.0125 8.59927 20.0125C8.97445 20.0125 9.27895 19.708 9.27895 19.3328C9.27895 19.2041 9.2427 19.0835 9.18108 18.9811L9.18289 18.9839L6.6318 14.565C6.34542 14.0675 6.51489 13.733 6.76955 13.5862C7.01967 13.4367 7.39758 13.4566 7.68667 13.956L9.14392 16.4808C9.17745 16.5388 9.21733 16.5886 9.26355 16.633L11.9397 19.1887L12.6448 20.4085L8.01202 23.0828C7.16195 22.0071 6.21855 21.0646 5.17727 20.2426L5.14192 20.2155ZM20.7566 26.2583L14.8868 22.8708C14.8769 22.8653 14.8651 22.8653 14.8551 22.8608C14.7953 22.8291 14.7255 22.8055 14.6512 22.7937L14.6476 22.7928L14.5986 22.7892C14.5823 22.7874 14.5633 22.7874 14.5434 22.7874C14.4908 22.7874 14.4391 22.7937 14.3893 22.8055L14.3938 22.8046C14.3721 22.81 14.3521 22.8182 14.3313 22.8245C14.2851 22.8354 14.2443 22.849 14.2053 22.8653L14.2099 22.8635L8.33102 26.2583L7.55617 24.9171L14.5434 20.8834L21.5305 24.9171L20.7566 26.2583ZM26.5149 15.4921C26.2349 17.3789 25.3114 19.0101 23.9774 20.191L23.9693 20.1982C22.8836 21.0528 21.9338 22.0008 21.1037 23.0475L21.0765 23.0828L16.4447 20.4094L17.1497 19.1896L19.8259 16.634C19.8721 16.5905 19.912 16.5397 19.9446 16.4844L19.9464 16.4817L21.4046 13.9569C21.5043 13.7566 21.6746 13.6035 21.8822 13.5282L21.8885 13.5264C21.9311 13.5155 21.9791 13.5092 22.0299 13.5092C22.1368 13.5092 22.2374 13.5382 22.3235 13.588L22.3208 13.5862C22.4513 13.6605 22.5483 13.782 22.5891 13.9261L22.59 13.9297C22.599 13.9768 22.6045 14.0321 22.6045 14.0874C22.6045 14.265 22.5501 14.43 22.4567 14.5668L22.4585 14.5641L19.9065 18.983C19.8495 19.0808 19.8159 19.1977 19.8159 19.3228C19.8159 19.5738 19.951 19.7922 20.153 19.911L20.1567 19.9128C20.2536 19.9671 20.3687 19.9998 20.492 19.9998C20.743 19.9998 20.9623 19.8665 21.0838 19.6663L21.0856 19.6635L24.0028 14.613C24.049 14.5351 24.0798 14.4435 24.0889 14.3448V14.342L24.7351 7.97383C24.7731 7.54517 24.9734 7.16998 25.2734 6.90445L25.2752 6.90264C25.4229 6.82017 25.5987 6.77214 25.7854 6.77214C25.8914 6.77214 25.9947 6.78755 26.0917 6.81655L26.0845 6.81473C26.1162 6.9108 26.1497 7.03586 26.176 7.16273L26.1805 7.1863C26.2612 7.54517 26.3291 7.98561 26.3699 8.4342L26.3726 8.4768C26.4823 9.5208 26.5394 10.6536 26.553 12.0429C26.5566 12.3456 26.5657 12.6492 26.5756 12.9519C26.5929 13.2228 26.6019 13.5391 26.6019 13.8581C26.6019 14.4336 26.5702 15.0027 26.5095 15.5619L26.5158 15.493L26.5149 15.4921ZM9.55173 7.53792V9.9703C9.55355 11.346 10.6682 12.4607 12.0439 12.4625H16.9549C18.3306 12.4607 19.4453 11.346 19.4471 9.9703V7.53792C19.8721 7.2588 20.1512 6.78664 20.1585 6.24923V5.58042C20.153 4.87264 19.68 4.27633 19.0338 4.08511L19.023 4.08239C19.1571 3.81323 19.2359 3.49514 19.2359 3.15892C19.2359 2.98492 19.2151 2.81545 19.1752 2.65323L19.1779 2.66773C18.9813 1.90467 18.3695 1.32467 17.6029 1.17786L17.5902 1.17605C17.4986 1.16245 17.3935 1.1552 17.2857 1.1552C16.4764 1.1552 15.7659 1.58295 15.3699 2.22458L15.3644 2.23455L14.4999 3.47883L13.6353 2.23455C13.2365 1.58295 12.5288 1.1543 11.7204 1.1543C11.6107 1.1543 11.5029 1.16245 11.3978 1.17786L11.4095 1.17605C10.6302 1.32558 10.0175 1.90558 9.82361 2.65505L9.82089 2.66864C9.78373 2.81636 9.76198 2.98583 9.76198 3.16073C9.76198 3.49605 9.84083 3.81323 9.98039 4.09417L9.97495 4.08239C9.31792 4.27723 8.84667 4.87355 8.84033 5.57952V6.24742C8.84758 6.78573 9.1258 7.25698 9.54448 7.53339L9.55083 7.53702L9.55173 7.53792ZM10.2006 6.24923V5.58223C10.2024 5.45536 10.3048 5.35295 10.4317 5.35114H13.8211V6.48123H10.4326C10.3057 6.47942 10.2033 6.37611 10.2015 6.24923H10.2006ZM18.5689 5.35023C18.6958 5.35295 18.7973 5.45445 18.7991 5.58133V6.24923C18.7973 6.37611 18.6958 6.47852 18.5689 6.48123H15.1795V5.35114L18.5689 5.35023ZM10.9111 9.9712V7.8397H13.8202V11.104H12.0439C11.4186 11.1031 10.912 10.5965 10.9111 9.9712ZM18.0877 9.9712C18.0868 10.5965 17.5802 11.1031 16.9549 11.104H15.1795V7.8397H18.0877V9.9712ZM16.4809 3.0103C16.6359 2.71214 16.9431 2.51277 17.2965 2.51277C17.3147 2.51277 17.3328 2.51367 17.3509 2.51458H17.3482C17.5992 2.56714 17.7959 2.75473 17.8584 2.99761L17.8593 3.00214C17.8639 3.0402 17.8666 3.0837 17.8666 3.1272C17.8666 3.47973 17.6971 3.7933 17.4352 3.98905L17.4325 3.99086H15.7994L16.4809 3.0103ZM11.1395 3.00214C11.2038 2.75473 11.4014 2.56623 11.6488 2.51548L11.6533 2.51458C11.6705 2.51367 11.6914 2.51277 11.7113 2.51277C12.063 2.51277 12.3665 2.71305 12.5161 3.00577L12.5188 3.0112L13.2003 3.99177H11.5672C11.3026 3.7933 11.1322 3.47973 11.1322 3.1272C11.1322 3.0837 11.135 3.0402 11.1395 2.99761L11.1386 3.00305L11.1395 3.00214Z" fill="#F5E18E"/>
</svg>
