<svg width="29" height="39" viewBox="0 0 29 39" fill="none" xmlns="http://www.w3.org/2000/svg">
<path fill-rule="evenodd" clip-rule="evenodd" d="M14.5048 8.01415C11.0225 5.22443 5.9774 5.47549 2.77697 8.76855C-0.688678 12.3358 -0.688678 18.1286 2.77697 21.6958L13.6606 32.8986C14.1235 33.3751 14.873 33.3751 15.336 32.8986L26.2195 21.6958C29.6852 18.1286 29.6852 12.3358 26.2195 8.76855C23.0345 5.49012 17.9894 5.25855 14.5048 8.01415ZM14.5 10.8514C15.0186 10.8416 15.2898 10.537 15.3324 10.4992C18.1208 8.00074 22.0115 7.88496 24.5453 10.4931C27.0862 13.1085 27.0862 17.3559 24.5453 19.9725L14.4977 30.3136L4.45119 19.9725C1.91026 17.3559 1.91026 13.1085 4.45119 10.4931C6.9933 7.87643 11.1208 7.87765 13.6629 10.4943C13.8843 10.7222 14.1863 10.8514 14.5 10.8514Z" fill="#F5E18E"/>
</svg>
