<svg width="40" height="41" viewBox="0 0 40 41" fill="none" xmlns="http://www.w3.org/2000/svg">
<g clip-path="url(#clip0_56_122)">
<path d="M2.58085 5.0166H1.29053V6.30692H2.58085V5.0166Z" fill="#F5E18E"/>
<path d="M2.58085 7.59668H1.29053V8.887H2.58085V7.59668Z" fill="#F5E18E"/>
<path d="M3.87089 6.30664H2.58057V7.59696H3.87089V6.30664Z" fill="#F5E18E"/>
<path d="M1.29032 6.30664H0V7.59696H1.29032V6.30664Z" fill="#F5E18E"/>
<path d="M8.387 14.6934H7.09668V15.9837H8.387V14.6934Z" fill="#F5E18E"/>
<path d="M32.2581 18.5645H30.9678V19.8548H32.2581V18.5645Z" fill="#F5E18E"/>
<path d="M37.4192 26.3066H36.1289V27.597H37.4192V26.3066Z" fill="#F5E18E"/>
<path d="M32.9031 3.72559H31.6128V5.01591H32.9031V3.72559Z" fill="#F5E18E"/>
<path d="M25.1614 5.66113H23.8711V6.95146H25.1614V5.66113Z" fill="#F5E18E"/>
<path d="M5.16142 22.4355H3.87109V23.7259H5.16142V22.4355Z" fill="#F5E18E"/>
<path d="M5.16142 25.0166H3.87109V26.3069H5.16142V25.0166Z" fill="#F5E18E"/>
<path d="M6.45146 23.7256H5.16113V25.0159H6.45146V23.7256Z" fill="#F5E18E"/>
<path d="M3.87089 23.7256H2.58057V25.0159H3.87089V23.7256Z" fill="#F5E18E"/>
<path d="M12.2581 0.5H10.9678V1.79032H12.2581V0.5Z" fill="#F5E18E"/>
<path d="M12.2581 3.08105H10.9678V4.37138H12.2581V3.08105Z" fill="#F5E18E"/>
<path d="M13.5486 1.79004H12.2583V3.08036H13.5486V1.79004Z" fill="#F5E18E"/>
<path d="M10.9676 1.79004H9.67725V3.08036H10.9676V1.79004Z" fill="#F5E18E"/>
<path d="M38.7098 10.8223H37.4194V12.1126H38.7098V10.8223Z" fill="#F5E18E"/>
<path d="M38.7098 13.4033H37.4194V14.6936H38.7098V13.4033Z" fill="#F5E18E"/>
<path d="M39.9998 12.1133H38.7095V13.4036H39.9998V12.1133Z" fill="#F5E18E"/>
<path d="M37.4192 12.1133H36.1289V13.4036H37.4192V12.1133Z" fill="#F5E18E"/>
<path d="M26.4516 14.6935H30.0374L20.6451 6.02387V3.08065H22.5806V1.79032H20.6451V0.5H19.3548V1.79032H17.4193V3.08065H19.3548V6.02387L9.96256 14.6935H13.5484V20.3555L3.49805 29.5323H7.77869L8.42385 40.5H31.5768L32.2219 29.5323H36.5026L26.4516 20.3555V14.6935ZM13.2632 13.4032L20 7.18452L26.7368 13.4032H25.1613V19.1774L20 14.4645L14.8387 19.1774V13.4032H13.2632ZM22.5806 39.2097H17.4193V30.8226H22.5806V39.2097ZM33.1755 28.2419H31.0045L30.3593 39.2097H23.8709V29.5323H16.129V39.2097H9.64063L8.99547 28.2419H6.8245L20 16.2123L33.1755 28.2419Z" fill="#F5E18E"/>
<path d="M18.5986 21.1455C17.2373 21.1455 16.1289 22.2539 16.1289 23.6152C16.1289 24.2752 16.3857 24.8952 16.8521 25.3616L19.9999 28.5094L23.1476 25.3616C23.6141 24.8958 23.8708 24.2752 23.8708 23.6152C23.8708 22.2539 22.7625 21.1455 21.4012 21.1455C20.8934 21.1455 20.4089 21.2978 19.9999 21.5803C19.5908 21.2978 19.1063 21.1455 18.5986 21.1455ZM21.4012 22.4358C22.0515 22.4358 22.5805 22.9649 22.5805 23.6152C22.5805 23.9262 22.4547 24.23 22.2354 24.4494L19.9999 26.6849L17.7644 24.4494C17.545 24.23 17.4192 23.9262 17.4192 23.6152C17.4192 22.9649 17.9483 22.4358 18.5986 22.4358C18.9089 22.4358 19.2134 22.5616 19.4328 22.781L19.9999 23.3481L20.567 22.781C20.7863 22.5616 21.0902 22.4358 21.4012 22.4358Z" fill="#F5E18E"/>
</g>
<defs>
<clipPath id="clip0_56_122">
<rect width="40" height="40" fill="white" transform="translate(0 0.5)"/>
</clipPath>
</defs>
</svg>
