<svg width="40" height="40" viewBox="0 0 40 40" fill="none" xmlns="http://www.w3.org/2000/svg">
<path d="M36.6665 26.667H31.6665V25.0003C32.0068 25 32.3389 24.8954 32.618 24.7007C32.8972 24.5061 33.1101 24.2306 33.228 23.9114C33.346 23.5921 33.3634 23.2444 33.2779 22.915C33.1924 22.5856 33.0081 22.2902 32.7498 22.0687L21.6665 12.567V8.33366H23.3332C23.7752 8.33366 24.1991 8.15806 24.5117 7.8455C24.8242 7.53294 24.9998 7.10902 24.9998 6.66699C24.9998 6.22496 24.8242 5.80104 24.5117 5.48848C24.1991 5.17592 23.7752 5.00033 23.3332 5.00033H21.6665V3.33366C21.6665 2.89163 21.4909 2.46771 21.1783 2.15515C20.8658 1.84259 20.4419 1.66699 19.9998 1.66699C19.5578 1.66699 19.1339 1.84259 18.8213 2.15515C18.5088 2.46771 18.3332 2.89163 18.3332 3.33366V5.00033H16.6665C16.2245 5.00033 15.8006 5.17592 15.488 5.48848C15.1754 5.80104 14.9998 6.22496 14.9998 6.66699C14.9998 7.10902 15.1754 7.53294 15.488 7.8455C15.8006 8.15806 16.2245 8.33366 16.6665 8.33366H18.3332V12.567L7.24984 22.067C6.91412 22.3545 6.70637 22.7637 6.67231 23.2044C6.63824 23.6451 6.78063 24.0813 7.06817 24.417C7.22511 24.5976 7.41968 24.7416 7.63823 24.8389C7.85677 24.9362 8.09397 24.9845 8.33317 24.9803V26.667H3.33317C2.89114 26.667 2.46722 26.8426 2.15466 27.1551C1.8421 27.4677 1.6665 27.8916 1.6665 28.3337V36.667C1.6665 37.109 1.8421 37.5329 2.15466 37.8455C2.46722 38.1581 2.89114 38.3337 3.33317 38.3337H36.6665C37.1085 38.3337 37.5325 38.1581 37.845 37.8455C38.1576 37.5329 38.3332 37.109 38.3332 36.667V28.3337C38.3332 27.8916 38.1576 27.4677 37.845 27.1551C37.5325 26.8426 37.1085 26.667 36.6665 26.667ZM4.99984 30.0003H8.33317V35.0003H4.99984V30.0003ZM11.6665 28.3337V22.667L19.9998 15.5253L28.3332 22.667V35.0003H24.9998V30.0003C24.9998 28.6742 24.4731 27.4025 23.5354 26.4648C22.5977 25.5271 21.3259 25.0003 19.9998 25.0003C18.6738 25.0003 17.402 25.5271 16.4643 26.4648C15.5266 27.4025 14.9998 28.6742 14.9998 30.0003V35.0003H11.6665V28.3337ZM18.3332 35.0003V30.0003C18.3332 29.5583 18.5088 29.1344 18.8213 28.8218C19.1339 28.5093 19.5578 28.3337 19.9998 28.3337C20.4419 28.3337 20.8658 28.5093 21.1783 28.8218C21.4909 29.1344 21.6665 29.5583 21.6665 30.0003V35.0003H18.3332ZM34.9998 35.0003H31.6665V30.0003H34.9998V35.0003Z" fill="#F5E18E"/>
</svg>
