<svg width="30" height="30" viewBox="0 0 30 30" fill="none" xmlns="http://www.w3.org/2000/svg">
<path d="M15 27.5C21.9036 27.5 27.5 21.9036 27.5 15C27.5 8.09644 21.9036 2.5 15 2.5C8.09644 2.5 2.5 8.09644 2.5 15C2.5 21.9036 8.09644 27.5 15 27.5Z" fill="white"/>
<path fill-rule="evenodd" clip-rule="evenodd" d="M18.3219 10.5986C17.9323 10.5207 17.4061 10.4625 17.0753 10.4625C16.1792 10.4625 16.121 10.8521 16.121 11.4754V12.5851H18.3609L18.1656 14.8836H16.121V21.875H13.3164V14.8836H11.875V12.5851H13.3164V11.1633C13.3164 9.21581 14.2318 8.125 16.5298 8.125C17.3283 8.125 17.9126 8.24188 18.6721 8.39769L18.3219 10.5986Z" fill="black"/>
</svg>
