<svg width="25" height="26" viewBox="0 0 25 26" fill="none" xmlns="http://www.w3.org/2000/svg">
<g clip-path="url(#clip0_56_63)">
<path d="M12.5 15.1973C13.711 15.1973 14.7022 14.2109 14.7022 12.9951C14.7022 12.5166 14.5459 12.0723 14.2871 11.7109C13.8867 11.1592 13.2373 10.793 12.5049 10.793C11.7725 10.793 11.1231 11.1543 10.7227 11.7109C10.4639 12.0723 10.3076 12.5166 10.3076 12.9951C10.3028 14.2109 11.2891 15.1973 12.5 15.1973Z" fill="white"/>
<path d="M17.3047 10.3096V8.46387V8.19043H17.0313L15.1855 8.19531L15.1953 10.3145L17.3047 10.3096Z" fill="white"/>
<path d="M15.918 13C15.918 14.8848 14.3848 16.418 12.5 16.418C10.6152 16.418 9.08203 14.8848 9.08203 13C9.08203 12.5459 9.1748 12.1113 9.33594 11.7158H7.4707V16.833C7.4707 17.4922 8.00781 18.0293 8.66699 18.0293H16.333C16.9922 18.0293 17.5293 17.4922 17.5293 16.833V11.7158H15.6641C15.8301 12.1113 15.918 12.5459 15.918 13Z" fill="white"/>
<path d="M12.5 0.5C5.5957 0.5 0 6.0957 0 13C0 19.9043 5.5957 25.5 12.5 25.5C19.4043 25.5 25 19.9043 25 13C25 6.0957 19.4043 0.5 12.5 0.5ZM18.75 11.7158V16.833C18.75 18.166 17.666 19.25 16.333 19.25H8.66699C7.33398 19.25 6.25 18.166 6.25 16.833V11.7158V9.16211C6.25 7.8291 7.33398 6.74512 8.66699 6.74512H16.333C17.666 6.74512 18.75 7.8291 18.75 9.16211V11.7158Z" fill="white"/>
</g>
<defs>
<clipPath id="clip0_56_63">
<rect width="25" height="25" fill="white" transform="translate(0 0.5)"/>
</clipPath>
</defs>
</svg>
