<svg width="69" height="22" viewBox="0 0 69 22" fill="none" xmlns="http://www.w3.org/2000/svg">
<path d="M23.84 1.51C23.84 1.24 23.57 0.969999 23.18 0.969999H19.82C19.64 0.969999 19.28 1.15 19.22 1.3L12.56 15.58L5.54 1.3C5.48 1.18 5.18 0.969999 4.97 0.969999H1.55C1.13 0.969999 0.95 1.24 0.95 1.51V21.49C0.95 21.73 1.13 22 1.55 22H4.91C5.27 22 5.54 21.73 5.54 21.49V11.44L10.43 20.89V20.86C10.49 21.01 10.82 21.19 11 21.19H14.15C14.3 21.19 14.66 20.98 14.69 20.86C16.19 17.83 17.72 14.8 19.22 11.77V21.49C19.22 21.73 19.49 22 19.88 22H23.18C23.57 22 23.84 21.73 23.84 21.49V1.51ZM42.2605 5.38C42.6505 5.38 42.9205 5.11 42.9205 4.84V1.54C42.9205 1.27 42.6505 0.999999 42.2605 0.999999H28.9705C28.5805 0.999999 28.3405 1.27 28.3405 1.54V21.49C28.3405 21.73 28.5805 22 28.9705 22H32.3005C32.6905 22 32.9305 21.73 32.9305 21.49V13.69H40.6105C40.9705 13.69 41.2105 13.42 41.2105 13.15V9.94C41.2105 9.67 40.9705 9.4 40.6105 9.4H32.9305V5.38H42.2605ZM68.7228 1.51C68.7228 1.24 68.4528 0.969999 68.0628 0.969999H64.7028C64.5228 0.969999 64.1628 1.15 64.1028 1.3L57.4428 15.58L50.4228 1.3C50.3628 1.18 50.0628 0.969999 49.8528 0.969999H46.4328C46.0128 0.969999 45.8328 1.24 45.8328 1.51V21.49C45.8328 21.73 46.0128 22 46.4328 22H49.7928C50.1528 22 50.4228 21.73 50.4228 21.49V11.44L55.3128 20.89V20.86C55.3728 21.01 55.7028 21.19 55.8828 21.19H59.0328C59.1828 21.19 59.5428 20.98 59.5728 20.86C61.0728 17.83 62.6028 14.8 64.1028 11.77V21.49C64.1028 21.73 64.3728 22 64.7628 22H68.0628C68.4528 22 68.7228 21.73 68.7228 21.49V1.51Z" fill="white"/>
</svg>
